<?xml version="1.0" ?><svg viewBox="0 0 64 64" xmlns="http://www.w3.org/2000/svg"><defs><style>.cls-1{fill:#c7e2fc;}.cls-2{fill:#ebf7fe;}.cls-3{fill:#d2e8fd;}.cls-4{fill:#a1cdfb;}</style></defs><title/><g data-name="Layer 11" id="Layer_11"><rect class="cls-1" height="16" width="54" x="5" y="46"/><rect class="cls-2" height="8" width="6" x="9" y="54"/><rect class="cls-2" height="8" width="6" x="19" y="54"/><rect class="cls-2" height="8" width="6" x="29" y="54"/><rect class="cls-2" height="8" width="6" x="39" y="54"/><rect class="cls-2" height="8" width="6" x="49" y="54"/><polygon class="cls-1" points="34 40 36 14 42 14 44 40 34 40"/><polygon class="cls-1" points="48 40 50 14 56 14 58 40 48 40"/><rect class="cls-1" height="17" width="24" x="6" y="23"/><path class="cls-3" d="M6,35.78C14.68,34.71,21.81,29.69,24.66,23H6Z"/><rect class="cls-4" height="6" width="60" x="2" y="40"/><rect class="cls-4" height="6" width="28" x="4" y="17"/><rect class="cls-2" height="8" width="6" x="10" y="27"/><rect class="cls-2" height="8" width="6" x="20" y="27"/><path d="M62,47a1,1,0,0,0,1-1V40a1,1,0,0,0-1-1H59.93L58,13.92A1,1,0,0,0,57,13H51a1,1,0,0,0-1,.92L48.07,39H45.93L44,13.92A1,1,0,0,0,43,13H37a1,1,0,0,0-1,.92L34.07,39H31V24h1a1,1,0,0,0,1-1V17a1,1,0,0,0-1-1H4a1,1,0,0,0-1,1v6a1,1,0,0,0,1,1H5V39H2a1,1,0,0,0-1,1v6a1,1,0,0,0,1,1H4V61H1v2H63V61H60V47ZM51.93,15h4.14l.16,2H51.77Zm-.31,4h4.76l1.54,20H50.08ZM37.93,15h4.14l.16,2H37.77Zm-.31,4h4.76l1.54,20H36.08ZM5,18H31v4H5Zm24,6V39H7V24ZM14,61H10V55h4Zm10,0H20V55h4Zm10,0H30V55h4Zm10,0H40V55h4Zm10,0H50V55h4Zm4,0H56V54a1,1,0,0,0-1-1H49a1,1,0,0,0-1,1v7H46V54a1,1,0,0,0-1-1H39a1,1,0,0,0-1,1v7H36V54a1,1,0,0,0-1-1H29a1,1,0,0,0-1,1v7H26V54a1,1,0,0,0-1-1H19a1,1,0,0,0-1,1v7H16V54a1,1,0,0,0-1-1H9a1,1,0,0,0-1,1v7H6V47H58ZM3,45V41H61v4Z"/><path d="M10,36h6a1,1,0,0,0,1-1V27a1,1,0,0,0-1-1H10a1,1,0,0,0-1,1v8A1,1,0,0,0,10,36Zm1-8h4v6H11Z"/><path d="M20,36h6a1,1,0,0,0,1-1V27a1,1,0,0,0-1-1H20a1,1,0,0,0-1,1v8A1,1,0,0,0,20,36Zm1-8h4v6H21Z"/><path d="M38,10a1.43,1.43,0,0,1,.41-1L39,8.41A3.36,3.36,0,0,0,40,6a1.43,1.43,0,0,1,.41-1L41,4.41A3.36,3.36,0,0,0,42,2V1H40V2a1.43,1.43,0,0,1-.41,1L39,3.59A3.36,3.36,0,0,0,38,6a1.43,1.43,0,0,1-.41,1L37,7.59A3.36,3.36,0,0,0,36,10v1h2Z"/><path d="M41,10v1h2V10a1.43,1.43,0,0,1,.41-1L44,8.41A3.36,3.36,0,0,0,45,6a1.43,1.43,0,0,1,.41-1L46,4.41A3.36,3.36,0,0,0,47,2V1H45V2a1.43,1.43,0,0,1-.41,1L44,3.59A3.36,3.36,0,0,0,43,6a1.43,1.43,0,0,1-.41,1L42,7.59A3.36,3.36,0,0,0,41,10Z"/><path d="M52,10a1.43,1.43,0,0,1,.41-1L53,8.41A3.36,3.36,0,0,0,54,6a1.43,1.43,0,0,1,.41-1L55,4.41A3.36,3.36,0,0,0,56,2V1H54V2a1.43,1.43,0,0,1-.41,1L53,3.59A3.36,3.36,0,0,0,52,6a1.43,1.43,0,0,1-.41,1L51,7.59A3.36,3.36,0,0,0,50,10v1h2Z"/><path d="M55,10v1h2V10a1.43,1.43,0,0,1,.41-1L58,8.41A3.36,3.36,0,0,0,59,6a1.43,1.43,0,0,1,.41-1L60,4.41A3.36,3.36,0,0,0,61,2V1H59V2a1.43,1.43,0,0,1-.41,1L58,3.59A3.36,3.36,0,0,0,57,6a1.43,1.43,0,0,1-.41,1L56,7.59A3.36,3.36,0,0,0,55,10Z"/></g></svg>