<?xml version="1.0" ?><svg style="enable-background:new 0 0 512 512;" version="1.1" viewBox="0 0 512 512" xml:space="preserve" xmlns="http://www.w3.org/2000/svg" xmlns:xlink="http://www.w3.org/1999/xlink"><g id="_x32_1_x5F_Solar_Panel"><g id="XMLID_845_"><g id="XMLID_911_"><g id="XMLID_1710_"><linearGradient gradientTransform="matrix(0.7314 -0.682 0.682 0.7314 -81.5089 95.0777)" gradientUnits="userSpaceOnUse" id="XMLID_2_" x1="40.4105" x2="119.4563" y1="152.4595" y2="152.4595"><stop offset="0" style="stop-color:#7DABDC"/><stop offset="1" style="stop-color:#BFEDFF"/></linearGradient><polygon id="XMLID_1748_" points="106,121 106,181 54,181 53.86,180.99 58.14,121     " style="fill:url(#XMLID_2_);"/><linearGradient gradientTransform="matrix(0.7314 -0.682 0.682 0.7314 -1.9279 67.1058)" gradientUnits="userSpaceOnUse" id="XMLID_3_" x1="51.2325" x2="117.1975" y1="37.2174" y2="37.2174"><stop offset="0" style="stop-color:#7DABDC"/><stop offset="1" style="stop-color:#BFEDFF"/></linearGradient><polygon id="XMLID_1747_" points="106,11 106,61 62.43,61 66,11     " style="fill:url(#XMLID_3_);"/><linearGradient gradientTransform="matrix(0.7314 -0.682 0.682 0.7314 28.1027 143.3429)" gradientUnits="userSpaceOnUse" id="XMLID_4_" x1="157.0094" x2="234.9906" y1="36" y2="36"><stop offset="0" style="stop-color:#7DABDC"/><stop offset="1" style="stop-color:#BFEDFF"/></linearGradient><rect height="50" id="XMLID_1746_" style="fill:url(#XMLID_4_);" width="60" x="166" y="11"/><linearGradient gradientTransform="matrix(0.7314 -0.682 0.682 0.7314 -25.526 117.1986)" gradientUnits="userSpaceOnUse" id="XMLID_5_" x1="93.5994" x2="178.4006" y1="91" y2="91"><stop offset="0" style="stop-color:#7DABDC"/><stop offset="1" style="stop-color:#BFEDFF"/></linearGradient><rect height="60" id="XMLID_1745_" style="fill:url(#XMLID_5_);" width="60" x="106" y="61"/><linearGradient gradientTransform="matrix(0.7314 -0.682 0.682 0.7314 11.984 102.423)" gradientUnits="userSpaceOnUse" id="XMLID_6_" x1="97.0094" x2="174.9906" y1="36" y2="36"><stop offset="0" style="stop-color:#7DABDC"/><stop offset="1" style="stop-color:#BFEDFF"/></linearGradient><rect height="50" id="XMLID_1744_" style="fill:url(#XMLID_6_);" width="60" x="106" y="11"/><linearGradient gradientTransform="matrix(0.7314 -0.682 0.682 0.7314 -160.9842 123.2878)" gradientUnits="userSpaceOnUse" id="XMLID_7_" x1="36.9992" x2="114.9803" y1="267.2024" y2="267.2024"><stop offset="0" style="stop-color:#7DABDC"/><stop offset="1" style="stop-color:#BFEDFF"/></linearGradient><polygon id="XMLID_1743_" points="106,241 106,291 46,291 49.57,240.97 50,241     " style="fill:url(#XMLID_7_);"/><linearGradient gradientTransform="matrix(0.7314 -0.682 0.682 0.7314 22.8304 239.9583)" gradientUnits="userSpaceOnUse" id="XMLID_8_" x1="273.5994" x2="358.4006" y1="91" y2="91"><stop offset="0" style="stop-color:#7DABDC"/><stop offset="1" style="stop-color:#BFEDFF"/></linearGradient><rect height="60" id="XMLID_1742_" style="fill:url(#XMLID_8_);" width="60" x="286" y="61"/><linearGradient gradientTransform="matrix(0.7314 -0.682 0.682 0.7314 76.4591 266.1027)" gradientUnits="userSpaceOnUse" id="XMLID_9_" x1="337.0094" x2="414.9906" y1="36" y2="36"><stop offset="0" style="stop-color:#7DABDC"/><stop offset="1" style="stop-color:#BFEDFF"/></linearGradient><rect height="50" id="XMLID_1741_" style="fill:url(#XMLID_9_);" width="60" x="346" y="11"/><linearGradient gradientTransform="matrix(0.7314 -0.682 0.682 0.7314 -40.014 80.4184)" gradientUnits="userSpaceOnUse" id="XMLID_10_" x1="44.1088" x2="120.0312" y1="92.4629" y2="92.4629"><stop offset="0" style="stop-color:#7DABDC"/><stop offset="1" style="stop-color:#BFEDFF"/></linearGradient><polygon id="XMLID_1740_" points="106,61 106,121 58.14,121 62.43,61     " style="fill:url(#XMLID_10_);"/><linearGradient gradientTransform="matrix(0.7314 -0.682 0.682 0.7314 -123.0016 109.7323)" gradientUnits="userSpaceOnUse" id="XMLID_11_" x1="36.7069" x2="118.8767" y1="212.4579" y2="212.4579"><stop offset="0" style="stop-color:#7DABDC"/><stop offset="1" style="stop-color:#BFEDFF"/></linearGradient><polygon id="XMLID_1739_" points="106,181 106,241 50,241 49.57,240.97 53.86,180.99 54,181           " style="fill:url(#XMLID_11_);"/><linearGradient gradientTransform="matrix(0.7314 -0.682 0.682 0.7314 44.2215 184.2628)" gradientUnits="userSpaceOnUse" id="XMLID_12_" x1="217.0094" x2="294.9906" y1="36" y2="36"><stop offset="0" style="stop-color:#7DABDC"/><stop offset="1" style="stop-color:#BFEDFF"/></linearGradient><rect height="50" id="XMLID_1738_" style="fill:url(#XMLID_12_);" width="60" x="226" y="11"/><linearGradient gradientTransform="matrix(0.7314 -0.682 0.682 0.7314 -96.5193 286.9714)" gradientUnits="userSpaceOnUse" id="XMLID_13_" x1="277.0094" x2="354.9906" y1="266" y2="266"><stop offset="0" style="stop-color:#7DABDC"/><stop offset="1" style="stop-color:#BFEDFF"/></linearGradient><polygon id="XMLID_1737_" points="346,241 346,291 341,291 286,291 286,241     " style="fill:url(#XMLID_13_);"/><linearGradient gradientTransform="matrix(0.7314 -0.682 0.682 0.7314 -91.247 190.356)" gradientUnits="userSpaceOnUse" id="XMLID_14_" x1="153.5994" x2="238.4006" y1="211" y2="211"><stop offset="0" style="stop-color:#7DABDC"/><stop offset="1" style="stop-color:#BFEDFF"/></linearGradient><rect height="60" id="XMLID_1736_" style="fill:url(#XMLID_14_);" width="60" x="166" y="181"/><linearGradient gradientTransform="matrix(0.7314 -0.682 0.682 0.7314 -59.0094 272.1959)" gradientUnits="userSpaceOnUse" id="XMLID_15_" x1="273.5994" x2="358.4006" y1="211" y2="211"><stop offset="0" style="stop-color:#7DABDC"/><stop offset="1" style="stop-color:#BFEDFF"/></linearGradient><rect height="60" id="XMLID_1735_" style="fill:url(#XMLID_15_);" width="60" x="286" y="181"/><linearGradient gradientTransform="matrix(0.7314 -0.682 0.682 0.7314 -18.0895 256.0771)" gradientUnits="userSpaceOnUse" id="XMLID_16_" x1="273.5994" x2="358.4006" y1="151" y2="151"><stop offset="0" style="stop-color:#7DABDC"/><stop offset="1" style="stop-color:#BFEDFF"/></linearGradient><rect height="60" id="XMLID_1734_" style="fill:url(#XMLID_16_);" width="60" x="286" y="121"/><linearGradient gradientTransform="matrix(0.7314 -0.682 0.682 0.7314 -75.1282 231.276)" gradientUnits="userSpaceOnUse" id="XMLID_17_" x1="213.5994" x2="298.4006" y1="211" y2="211"><stop offset="0" style="stop-color:#7DABDC"/><stop offset="1" style="stop-color:#BFEDFF"/></linearGradient><rect height="60" id="XMLID_1733_" style="fill:url(#XMLID_17_);" width="60" x="226" y="181"/><linearGradient gradientTransform="matrix(0.7314 -0.682 0.682 0.7314 60.3403 225.1828)" gradientUnits="userSpaceOnUse" id="XMLID_18_" x1="277.0094" x2="354.9906" y1="36" y2="36"><stop offset="0" style="stop-color:#7DABDC"/><stop offset="1" style="stop-color:#BFEDFF"/></linearGradient><rect height="50" id="XMLID_1732_" style="fill:url(#XMLID_18_);" width="60" x="286" y="11"/><linearGradient gradientTransform="matrix(0.7314 -0.682 0.682 0.7314 -107.3658 149.4362)" gradientUnits="userSpaceOnUse" id="XMLID_19_" x1="93.5994" x2="178.4006" y1="211" y2="211"><stop offset="0" style="stop-color:#7DABDC"/><stop offset="1" style="stop-color:#BFEDFF"/></linearGradient><rect height="60" id="XMLID_1731_" style="fill:url(#XMLID_19_);" width="60" x="106" y="181"/><linearGradient gradientTransform="matrix(0.7314 -0.682 0.682 0.7314 -128.7569 205.1316)" gradientUnits="userSpaceOnUse" id="XMLID_20_" x1="157.0094" x2="234.9906" y1="266" y2="266"><stop offset="0" style="stop-color:#7DABDC"/><stop offset="1" style="stop-color:#BFEDFF"/></linearGradient><polygon id="XMLID_1730_" points="226,241 226,291 181,291 166,291 166,241     " style="fill:url(#XMLID_20_);"/><linearGradient gradientTransform="matrix(0.7314 -0.682 0.682 0.7314 -66.4459 133.3174)" gradientUnits="userSpaceOnUse" id="XMLID_21_" x1="93.5994" x2="178.4006" y1="151" y2="151"><stop offset="0" style="stop-color:#7DABDC"/><stop offset="1" style="stop-color:#BFEDFF"/></linearGradient><rect height="60" id="XMLID_1729_" style="fill:url(#XMLID_21_);" width="60" x="106" y="121"/><linearGradient gradientTransform="matrix(0.7314 -0.682 0.682 0.7314 -112.6381 246.0515)" gradientUnits="userSpaceOnUse" id="XMLID_22_" x1="217.0094" x2="294.9906" y1="266" y2="266"><stop offset="0" style="stop-color:#7DABDC"/><stop offset="1" style="stop-color:#BFEDFF"/></linearGradient><rect height="50" id="XMLID_1728_" style="fill:url(#XMLID_22_);" width="60" x="226" y="241"/><linearGradient gradientTransform="matrix(0.7314 -0.682 0.682 0.7314 -34.2083 215.1572)" gradientUnits="userSpaceOnUse" id="XMLID_23_" x1="213.5994" x2="298.4006" y1="151" y2="151"><stop offset="0" style="stop-color:#7DABDC"/><stop offset="1" style="stop-color:#BFEDFF"/></linearGradient><rect height="60" id="XMLID_1727_" style="fill:url(#XMLID_23_);" width="60" x="226" y="121"/><linearGradient gradientTransform="matrix(0.7314 -0.682 0.682 0.7314 6.7116 199.0384)" gradientUnits="userSpaceOnUse" id="XMLID_24_" x1="213.5994" x2="298.4006" y1="91" y2="91"><stop offset="0" style="stop-color:#7DABDC"/><stop offset="1" style="stop-color:#BFEDFF"/></linearGradient><rect height="60" id="XMLID_1726_" style="fill:url(#XMLID_24_);" width="60" x="226" y="61"/><linearGradient gradientTransform="matrix(0.7314 -0.682 0.682 0.7314 -50.3271 174.2373)" gradientUnits="userSpaceOnUse" id="XMLID_25_" x1="153.5994" x2="238.4006" y1="151" y2="151"><stop offset="0" style="stop-color:#7DABDC"/><stop offset="1" style="stop-color:#BFEDFF"/></linearGradient><rect height="60" id="XMLID_1725_" style="fill:url(#XMLID_25_);" width="60" x="166" y="121"/><linearGradient gradientTransform="matrix(0.7314 -0.682 0.682 0.7314 -9.4072 158.1185)" gradientUnits="userSpaceOnUse" id="XMLID_26_" x1="153.5994" x2="238.4006" y1="91" y2="91"><stop offset="0" style="stop-color:#7DABDC"/><stop offset="1" style="stop-color:#BFEDFF"/></linearGradient><rect height="60" id="XMLID_1724_" style="fill:url(#XMLID_26_);" width="60" x="166" y="61"/><linearGradient gradientTransform="matrix(0.7314 -0.682 0.682 0.7314 -144.8757 164.2117)" gradientUnits="userSpaceOnUse" id="XMLID_27_" x1="97.0094" x2="174.9906" y1="266" y2="266"><stop offset="0" style="stop-color:#7DABDC"/><stop offset="1" style="stop-color:#BFEDFF"/></linearGradient><rect height="50" id="XMLID_1723_" style="fill:url(#XMLID_27_);" width="60" x="106" y="241"/><linearGradient gradientTransform="matrix(0.7314 -0.682 0.682 0.7314 -80.4006 327.8913)" gradientUnits="userSpaceOnUse" id="XMLID_28_" x1="337.0094" x2="414.9906" y1="266" y2="266"><stop offset="0" style="stop-color:#7DABDC"/><stop offset="1" style="stop-color:#BFEDFF"/></linearGradient><rect height="50" id="XMLID_1722_" style="fill:url(#XMLID_28_);" width="60" x="346" y="241"/><linearGradient gradientTransform="matrix(0.7314 -0.682 0.682 0.7314 53.4373 317.6584)" gradientUnits="userSpaceOnUse" id="XMLID_29_" x1="391.9688" x2="464.7537" y1="91" y2="91"><stop offset="0" style="stop-color:#7DABDC"/><stop offset="1" style="stop-color:#BFEDFF"/></linearGradient><polygon id="XMLID_1721_" points="449.57,61 453.86,121 406,121 406,61     " style="fill:url(#XMLID_29_);"/><linearGradient gradientTransform="matrix(0.7314 -0.682 0.682 0.7314 -27.248 352.817)" gradientUnits="userSpaceOnUse" id="XMLID_30_" x1="393.1165" x2="472.176" y1="210.9877" y2="210.9877"><stop offset="0" style="stop-color:#7DABDC"/><stop offset="1" style="stop-color:#BFEDFF"/></linearGradient><polygon id="XMLID_1720_" points="458.14,180.99 462.43,240.97 462,241 406,241 406,181 458,181           " style="fill:url(#XMLID_30_);"/><linearGradient gradientTransform="matrix(0.7314 -0.682 0.682 0.7314 -1.9707 296.997)" gradientUnits="userSpaceOnUse" id="XMLID_31_" x1="333.5994" x2="418.4006" y1="151" y2="151"><stop offset="0" style="stop-color:#7DABDC"/><stop offset="1" style="stop-color:#BFEDFF"/></linearGradient><rect height="60" id="XMLID_1719_" style="fill:url(#XMLID_31_);" width="60" x="346" y="121"/><linearGradient gradientTransform="matrix(0.7314 -0.682 0.682 0.7314 -42.8906 313.1158)" gradientUnits="userSpaceOnUse" id="XMLID_32_" x1="333.5994" x2="418.4006" y1="211" y2="211"><stop offset="0" style="stop-color:#7DABDC"/><stop offset="1" style="stop-color:#BFEDFF"/></linearGradient><rect height="60" id="XMLID_1718_" style="fill:url(#XMLID_32_);" width="60" x="346" y="181"/><linearGradient gradientTransform="matrix(0.7314 -0.682 0.682 0.7314 -64.2715 368.8072)" gradientUnits="userSpaceOnUse" id="XMLID_33_" x1="396.9992" x2="472.3899" y1="265.996" y2="265.996"><stop offset="0" style="stop-color:#7DABDC"/><stop offset="1" style="stop-color:#BFEDFF"/></linearGradient><polygon id="XMLID_1717_" points="462.43,240.97 466,291 406,291 406,241 462,241     " style="fill:url(#XMLID_33_);"/><linearGradient gradientTransform="matrix(0.7314 -0.682 0.682 0.7314 13.0923 335.2366)" gradientUnits="userSpaceOnUse" id="XMLID_34_" x1="392.5437" x2="468.4662" y1="150.9964" y2="150.9964"><stop offset="0" style="stop-color:#7DABDC"/><stop offset="1" style="stop-color:#BFEDFF"/></linearGradient><polygon id="XMLID_1716_" points="453.86,121 458.14,180.99 458,181 406,181 406,121     " style="fill:url(#XMLID_34_);"/><linearGradient gradientTransform="matrix(0.7314 -0.682 0.682 0.7314 38.9492 280.8782)" gradientUnits="userSpaceOnUse" id="XMLID_35_" x1="333.5994" x2="418.4006" y1="91" y2="91"><stop offset="0" style="stop-color:#7DABDC"/><stop offset="1" style="stop-color:#BFEDFF"/></linearGradient><rect height="60" id="XMLID_1715_" style="fill:url(#XMLID_35_);" width="60" x="346" y="61"/><linearGradient gradientTransform="matrix(0.7314 -0.682 0.682 0.7314 90.3709 301.4199)" gradientUnits="userSpaceOnUse" id="XMLID_36_" x1="394.8025" x2="458.1566" y1="36" y2="36"><stop offset="0" style="stop-color:#7DABDC"/><stop offset="1" style="stop-color:#BFEDFF"/></linearGradient><polygon id="XMLID_1714_" points="446,11 449.57,61 406,61 406,11     " style="fill:url(#XMLID_36_);"/><linearGradient gradientTransform="matrix(0.7314 -0.682 0.682 0.7314 -141.9848 261.5506)" gradientUnits="userSpaceOnUse" id="XMLID_37_" x1="188.8517" x2="333.1483" y1="311" y2="311"><stop offset="0" style="stop-color:#B3C9DD"/><stop offset="1" style="stop-color:#F5FFFF"/></linearGradient><polygon id="XMLID_1713_" points="341,291 341,331 276,331 236,331 181,331 181,291 226,291       286,291     " style="fill:url(#XMLID_37_);"/><linearGradient gradientTransform="matrix(0.7314 -0.682 0.682 0.7314 -257.9245 307.2205)" gradientUnits="userSpaceOnUse" id="XMLID_38_" x1="188.8517" x2="333.1483" y1="481" y2="481"><stop offset="0" style="stop-color:#4E2EB5"/><stop offset="1" style="stop-color:#9070F7"/></linearGradient><polygon id="XMLID_1712_" points="341,461 341,501 181,501 181,461 216,461 296,461     " style="fill:url(#XMLID_38_);"/><linearGradient gradientTransform="matrix(0.7314 -0.682 0.682 0.7314 -201.2979 280.9755)" gradientUnits="userSpaceOnUse" id="XMLID_39_" x1="182.416" x2="314.957" y1="402.82" y2="402.82"><stop offset="0" style="stop-color:#6857C7"/><stop offset="1" style="stop-color:#AA99FF"/></linearGradient><polygon id="XMLID_1711_" points="276,331 296,461 216,461 236,331     " style="fill:url(#XMLID_39_);"/></g><g id="XMLID_967_"><g id="XMLID_1709_"><path d="M466,301H341c-5.522,0-10-4.478-10-10s4.478-10,10-10h114.261L436.688,21H75.312L56.739,281H181       c5.523,0,10,4.478,10,10s-4.477,10-10,10H46c-2.776,0-5.427-1.153-7.318-3.186c-1.892-2.031-2.854-4.758-2.656-7.526l20-280       C56.399,5.055,60.753,1,66,1h380c5.246,0,9.601,4.055,9.975,9.288l20,280c0.197,2.769-0.765,5.495-2.656,7.526       C471.427,299.847,468.775,301,466,301z" id="XMLID_317_"/></g><g id="XMLID_1708_"><path d="M106,301c-5.523,0-10-4.478-10-10V11c0-5.523,4.477-10,10-10s10,4.477,10,10v280       C116,296.522,111.523,301,106,301z" id="XMLID_316_"/></g><g id="XMLID_1707_"><path d="M166,301c-5.523,0-10-4.478-10-10V11c0-5.523,4.477-10,10-10s10,4.477,10,10v280       C176,296.522,171.523,301,166,301z" id="XMLID_315_"/></g><g id="XMLID_1706_"><path d="M226,301c-5.523,0-10-4.478-10-10V11c0-5.523,4.477-10,10-10s10,4.477,10,10v280       C236,296.522,231.523,301,226,301z" id="XMLID_314_"/></g><g id="XMLID_1705_"><path d="M286,301c-5.522,0-10-4.478-10-10V11c0-5.523,4.478-10,10-10s10,4.477,10,10v280       C296,296.522,291.522,301,286,301z" id="XMLID_313_"/></g><g id="XMLID_1015_"><path d="M450,71H62c-5.523,0-10-4.477-10-10s4.477-10,10-10h388c5.522,0,10,4.477,10,10S455.522,71,450,71z" id="XMLID_312_"/></g><g id="XMLID_1013_"><path d="M454,131H58c-5.523,0-10-4.477-10-10s4.477-10,10-10h396c5.522,0,10,4.477,10,10S459.522,131,454,131z       " id="XMLID_311_"/></g><g id="XMLID_1011_"><path d="M458,191H54c-5.523,0-10-4.477-10-10s4.477-10,10-10h404c5.522,0,10,4.477,10,10S463.522,191,458,191z       " id="XMLID_310_"/></g><g id="XMLID_1009_"><path d="M462,251H50c-5.523,0-10-4.477-10-10s4.477-10,10-10h412c5.522,0,10,4.477,10,10S467.522,251,462,251z       " id="XMLID_309_"/></g><g id="XMLID_1008_"><path d="M346,301c-5.522,0-10-4.478-10-10V11c0-5.523,4.478-10,10-10s10,4.477,10,10v280       C356,296.522,351.522,301,346,301z" id="XMLID_308_"/></g><g id="XMLID_1007_"><path d="M406,301c-5.522,0-10-4.478-10-10V11c0-5.523,4.478-10,10-10s10,4.477,10,10v280       C416,296.522,411.522,301,406,301z" id="XMLID_307_"/></g><g id="XMLID_977_"><path d="M341,341h-65c-5.522,0-10-4.478-10-10s4.478-10,10-10h55v-20H191v20h45c5.523,0,10,4.478,10,10       s-4.477,10-10,10h-55c-5.523,0-10-4.478-10-10v-40c0-5.522,4.477-10,10-10h160c5.522,0,10,4.478,10,10v40       C351,336.522,346.522,341,341,341z" id="XMLID_306_"/></g><g id="XMLID_976_"><path d="M341,511c-5.522,0-10-4.478-10-10v-30h-35c-5.522,0-10-4.478-10-10s4.478-10,10-10h45       c5.522,0,10,4.478,10,10v40C351,506.522,346.522,511,341,511z" id="XMLID_305_"/></g><g id="XMLID_973_"><path d="M181,511c-5.523,0-10-4.478-10-10v-40c0-5.522,4.477-10,10-10h35c5.523,0,10,4.478,10,10       s-4.477,10-10,10h-25v30C191,506.522,186.523,511,181,511z" id="XMLID_304_"/></g><g id="XMLID_970_"><path d="M381,511H141c-5.523,0-10-4.478-10-10s4.477-10,10-10h240c5.522,0,10,4.478,10,10S386.522,511,381,511       z" id="XMLID_303_"/></g><g id="XMLID_968_"><path d="M296,471h-80c-2.917,0-5.69-1.274-7.59-3.488c-1.899-2.215-2.737-5.148-2.294-8.032l20-130       c0.75-4.878,4.948-8.479,9.884-8.479h40c4.936,0,9.133,3.602,9.884,8.479l20,130c0.443,2.884-0.395,5.817-2.294,8.032       C301.689,469.726,298.918,471,296,471z M227.656,451h56.688l-16.923-110h-22.842L227.656,451z" id="XMLID_300_"/></g></g></g></g></g><g id="Layer_1"/></svg>