<?xml version="1.0" ?><svg viewBox="0 0 64 64" xmlns="http://www.w3.org/2000/svg"><rect height="58" style="fill:#f2daae" width="30" x="17" y="3"/><rect height="40" style="fill:#f2daae" width="14" x="47" y="21"/><rect height="6" style="fill:#efbc2e" width="6" x="51" y="25"/><rect height="6" style="fill:#efbc2e" width="6" x="51" y="35"/><rect height="6" style="fill:#efbc2e" width="6" x="51" y="45"/><rect height="40" style="fill:#f2daae" width="14" x="3" y="21"/><rect height="6" style="fill:#efbc2e" width="6" x="7" y="25"/><rect height="4" style="fill:#efbc2e" width="4" x="21" y="23"/><rect height="4" style="fill:#efbc2e" width="4" x="30" y="23"/><rect height="4" style="fill:#efbc2e" width="4" x="39" y="23"/><rect height="4" style="fill:#efbc2e" width="4" x="21" y="31"/><rect height="4" style="fill:#efbc2e" width="4" x="30" y="31"/><rect height="4" style="fill:#efbc2e" width="4" x="39" y="31"/><rect height="4" style="fill:#efbc2e" width="4" x="21" y="39"/><rect height="4" style="fill:#efbc2e" width="4" x="30" y="39"/><rect height="4" style="fill:#efbc2e" width="4" x="39" y="39"/><rect height="6" style="fill:#efbc2e" width="6" x="7" y="35"/><rect height="6" style="fill:#efbc2e" width="6" x="7" y="45"/><polygon points="38 11 34 11 34 7 30 7 30 11 26 11 26 15 30 15 30 19 34 19 34 15 38 15 38 11" style="fill:#42a5b2"/><rect height="12" style="fill:#4f5559" width="8" x="28" y="49"/><path d="M61,20H48V3a1,1,0,0,0-1-1H17a1,1,0,0,0-1,1V20H3a1,1,0,0,0-1,1V61a1,1,0,0,0,1,1H61a1,1,0,0,0,1-1V21A1,1,0,0,0,61,20ZM4,22H16V60H4ZM35,50V60H29V50ZM46,60H37V50h2V48H25v2h2V60H18V4H46Zm14,0H48V22H60Z" style="fill:#3a4249"/><path d="M51,32h6a1,1,0,0,0,1-1V25a1,1,0,0,0-1-1H51a1,1,0,0,0-1,1v6A1,1,0,0,0,51,32Zm1-6h4v4H52Z" style="fill:#3a4249"/><path d="M51,42h6a1,1,0,0,0,1-1V35a1,1,0,0,0-1-1H51a1,1,0,0,0-1,1v6A1,1,0,0,0,51,42Zm1-6h4v4H52Z" style="fill:#3a4249"/><path d="M51,52h6a1,1,0,0,0,1-1V45a1,1,0,0,0-1-1H51a1,1,0,0,0-1,1v6A1,1,0,0,0,51,52Zm1-6h4v4H52Z" style="fill:#3a4249"/><path d="M13,24H7a1,1,0,0,0-1,1v6a1,1,0,0,0,1,1h6a1,1,0,0,0,1-1V25A1,1,0,0,0,13,24Zm-1,6H8V26h4Z" style="fill:#3a4249"/><path d="M21,28h4a1,1,0,0,0,1-1V23a1,1,0,0,0-1-1H21a1,1,0,0,0-1,1v4A1,1,0,0,0,21,28Zm1-4h2v2H22Z" style="fill:#3a4249"/><path d="M34,22H30a1,1,0,0,0-1,1v4a1,1,0,0,0,1,1h4a1,1,0,0,0,1-1V23A1,1,0,0,0,34,22Zm-1,4H31V24h2Z" style="fill:#3a4249"/><path d="M38,23v4a1,1,0,0,0,1,1h4a1,1,0,0,0,1-1V23a1,1,0,0,0-1-1H39A1,1,0,0,0,38,23Zm2,1h2v2H40Z" style="fill:#3a4249"/><path d="M21,36h4a1,1,0,0,0,1-1V31a1,1,0,0,0-1-1H21a1,1,0,0,0-1,1v4A1,1,0,0,0,21,36Zm1-4h2v2H22Z" style="fill:#3a4249"/><path d="M34,30H30a1,1,0,0,0-1,1v4a1,1,0,0,0,1,1h4a1,1,0,0,0,1-1V31A1,1,0,0,0,34,30Zm-1,4H31V32h2Z" style="fill:#3a4249"/><path d="M43,30H39a1,1,0,0,0-1,1v4a1,1,0,0,0,1,1h4a1,1,0,0,0,1-1V31A1,1,0,0,0,43,30Zm-1,4H40V32h2Z" style="fill:#3a4249"/><path d="M21,44h4a1,1,0,0,0,1-1V39a1,1,0,0,0-1-1H21a1,1,0,0,0-1,1v4A1,1,0,0,0,21,44Zm1-4h2v2H22Z" style="fill:#3a4249"/><path d="M34,38H30a1,1,0,0,0-1,1v4a1,1,0,0,0,1,1h4a1,1,0,0,0,1-1V39A1,1,0,0,0,34,38Zm-1,4H31V40h2Z" style="fill:#3a4249"/><path d="M43,38H39a1,1,0,0,0-1,1v4a1,1,0,0,0,1,1h4a1,1,0,0,0,1-1V39A1,1,0,0,0,43,38Zm-1,4H40V40h2Z" style="fill:#3a4249"/><path d="M13,34H7a1,1,0,0,0-1,1v6a1,1,0,0,0,1,1h6a1,1,0,0,0,1-1V35A1,1,0,0,0,13,34Zm-1,6H8V36h4Z" style="fill:#3a4249"/><path d="M13,44H7a1,1,0,0,0-1,1v6a1,1,0,0,0,1,1h6a1,1,0,0,0,1-1V45A1,1,0,0,0,13,44Zm-1,6H8V46h4Z" style="fill:#3a4249"/><path d="M26,16h3v3a1,1,0,0,0,1,1h4a1,1,0,0,0,1-1V16h3a1,1,0,0,0,1-1V11a1,1,0,0,0-1-1H35V7a1,1,0,0,0-1-1H30a1,1,0,0,0-1,1v3H26a1,1,0,0,0-1,1v4A1,1,0,0,0,26,16Zm1-4h3a1,1,0,0,0,1-1V8h2v3a1,1,0,0,0,1,1h3v2H34a1,1,0,0,0-1,1v3H31V15a1,1,0,0,0-1-1H27Z" style="fill:#3a4249"/><rect height="2" style="fill:#3a4249" width="2" x="42" y="56"/><rect height="2" style="fill:#3a4249" width="2" x="42" y="52"/><rect height="2" style="fill:#3a4249" width="2" x="42" y="48"/></svg>