<?xml version="1.0" ?><svg style="enable-background:new 0 0 512 512;" version="1.1" viewBox="0 0 512 512" xml:space="preserve" xmlns="http://www.w3.org/2000/svg" xmlns:xlink="http://www.w3.org/1999/xlink"><g id="_x33__x5F_Eolic_Energy"><g id="XMLID_1526_"><g id="XMLID_1568_"><g id="XMLID_1807_"><linearGradient gradientTransform="matrix(0.7314 -0.682 0.682 0.7314 -249.239 299.86)" gradientUnits="userSpaceOnUse" id="XMLID_2_" x1="53.1496" x2="458.8504" y1="466.295" y2="466.295"><stop offset="0" style="stop-color:#8ADC3F"/><stop offset="1" style="stop-color:#CCFF81"/></linearGradient><path d="M501,431.59V501H11v-69.41c40.83,0,40.83,20,81.66,20      c40.84,0,40.84-20,81.67-20c25.39,0,34.99,7.74,48.45,13.58c8.17,3.56,17.78,6.42,33.21,6.42c15.45,0,25.05-2.86,33.23-6.42      c13.45-5.85,23.05-13.58,48.44-13.58c40.83,0,40.83,20,81.67,20C460.16,451.59,460.16,431.59,501,431.59z" id="XMLID_1814_" style="fill:url(#XMLID_2_);"/><linearGradient gradientTransform="matrix(0.7314 -0.682 0.682 0.7314 -156.0098 263.136)" gradientUnits="userSpaceOnUse" id="XMLID_3_" x1="152.8825" x2="351.0044" y1="333.0716" y2="333.0716"><stop offset="0" style="stop-color:#B3C9DD"/><stop offset="1" style="stop-color:#F5FFFF"/></linearGradient><path d="M272.14,207.6l17.08,237.57c-8.18,3.56-17.78,6.42-33.23,6.42      c-15.43,0-25.04-2.86-33.21-6.42l17.08-237.57c4.94,2.19,10.4,3.4,16.14,3.4C261.74,211,267.2,209.79,272.14,207.6z" id="XMLID_1812_" style="fill:url(#XMLID_3_);"/><linearGradient gradientTransform="matrix(0.7314 -0.682 0.682 0.7314 -47.8483 220.5301)" gradientUnits="userSpaceOnUse" id="XMLID_4_" x1="215.9987" x2="295.9972" y1="171.0024" y2="171.0024"><stop offset="0" style="stop-color:#6857C7"/><stop offset="1" style="stop-color:#AA99FF"/></linearGradient><path d="M290.43,150.62c3.54,5.97,5.57,12.94,5.57,20.38s-2.03,14.41-5.57,20.38      c-4.24,7.14-10.63,12.85-18.29,16.22c-4.94,2.19-10.4,3.4-16.14,3.4c-5.74,0-11.2-1.21-16.14-3.4      c-7.66-3.37-14.05-9.08-18.29-16.22c-3.54-5.97-5.57-12.94-5.57-20.38s2.03-14.41,5.57-20.38c3.67-6.17,8.94-11.27,15.25-14.72      c5.69-3.13,12.23-4.9,19.18-4.9c6.95,0,13.49,1.77,19.18,4.9C281.49,139.35,286.76,144.45,290.43,150.62z" id="XMLID_1811_" style="fill:url(#XMLID_4_);"/><linearGradient gradientTransform="matrix(0.7314 -0.682 0.682 0.7314 -22.4034 285.1256)" gradientUnits="userSpaceOnUse" id="XMLID_5_" x1="292.7262" x2="394.8047" y1="163.5475" y2="163.5475"><stop offset="0" style="stop-color:#7DABDC"/><stop offset="1" style="stop-color:#BFEDFF"/></linearGradient><path d="M341,146c38.66,0,70,25,70,25s-31.34,25-70,25      c-15.12,0-39.13-1.71-50.57-4.62c3.54-5.97,5.57-12.94,5.57-20.38s-2.03-14.41-5.57-20.38C301.87,147.71,325.88,146,341,146z" id="XMLID_1810_" style="fill:url(#XMLID_5_);"/><linearGradient gradientTransform="matrix(0.7314 -0.682 0.682 0.7314 18.6807 194.3237)" gradientUnits="userSpaceOnUse" id="XMLID_6_" x1="199.3818" x2="298.5908" y1="79.9904" y2="79.9904"><stop offset="0" style="stop-color:#7DABDC"/><stop offset="1" style="stop-color:#BFEDFF"/></linearGradient><path d="M281,81c0,17.09-2.19,42.75-5.82,54.9c-5.69-3.13-12.23-4.9-19.18-4.9      c-6.95,0-13.49,1.77-19.18,4.9C233.19,123.75,231,98.09,231,81c0-38.66,25-70,25-70S281,42.34,281,81z" id="XMLID_1809_" style="fill:url(#XMLID_6_);"/><linearGradient gradientTransform="matrix(0.7314 -0.682 0.682 0.7314 -73.2931 155.9346)" gradientUnits="userSpaceOnUse" id="XMLID_7_" x1="117.1953" x2="219.2738" y1="178.4525" y2="178.4525"><stop offset="0" style="stop-color:#7DABDC"/><stop offset="1" style="stop-color:#BFEDFF"/></linearGradient><path d="M221.57,150.62c-3.54,5.97-5.57,12.94-5.57,20.38s2.03,14.41,5.57,20.38      C210.13,194.29,186.12,196,171,196c-38.66,0-70-25-70-25s31.34-25,70-25C186.12,146,210.13,147.71,221.57,150.62z" id="XMLID_1808_" style="fill:url(#XMLID_7_);"/></g><g id="XMLID_1793_"><g id="XMLID_1806_"><path d="M501,511H11c-5.523,0-10-4.478-10-10v-69.41c0-5.522,4.477-10,10-10       c22.733,0,34.685,5.854,45.229,11.02c9.838,4.818,18.334,8.98,36.431,8.98c18.104,0,26.602-4.162,36.442-8.981       c10.545-5.165,22.497-11.019,45.228-11.019c22.709,0,34.656,5.846,45.197,11.003c2.465,1.206,4.793,2.345,7.232,3.403       c0.005,0.002,0.01,0.004,0.015,0.007c6.659,2.901,14.807,5.587,29.215,5.587c14.412,0,22.569-2.687,29.238-5.589       c2.43-1.057,4.747-2.191,7.2-3.394c10.545-5.164,22.497-11.018,45.231-11.018c22.731,0,34.683,5.854,45.228,11.019       c9.841,4.819,18.339,8.981,36.442,8.981c18.097,0,26.593-4.161,36.431-8.979c10.547-5.166,22.501-11.021,45.239-11.021       c5.522,0,10,4.478,10,10V501C511,506.522,506.522,511,501,511z M21,491h470v-48.917c-11.638,1.237-18.615,4.655-26.442,8.488       c-10.545,5.165-22.496,11.019-45.228,11.019c-22.738,0-34.692-5.854-45.239-11.021c-9.838-4.818-18.334-8.979-36.431-8.979       c-18.101,0-26.597,4.161-36.435,8.979c-2.545,1.246-5.176,2.535-8.018,3.771c-8.234,3.585-19.098,7.25-37.218,7.25       c-18.114,0-28.969-3.664-37.197-7.249c-2.856-1.239-5.499-2.532-8.056-3.783c-9.835-4.813-18.329-8.968-36.407-8.968       c-18.096,0-26.593,4.161-36.431,8.979c-10.546,5.166-22.5,11.021-45.239,11.021c-22.732,0-34.684-5.854-45.229-11.02       c-7.824-3.832-14.8-7.249-26.431-8.487V491z" id="XMLID_100_"/></g><g id="XMLID_1805_"><path d="M256,221c-7.026,0-13.819-1.433-20.193-4.258c-9.561-4.207-17.466-11.215-22.835-20.256       C208.41,188.793,206,179.982,206,171s2.41-17.793,6.968-25.48c4.603-7.737,11.189-14.093,19.054-18.394       C239.3,123.123,247.599,121,256,121c8.401,0,16.7,2.123,24,6.138c7.843,4.288,14.429,10.645,19.024,18.37       c0.002,0.004,0.004,0.008,0.007,0.012C303.59,153.208,306,162.019,306,171s-2.41,17.792-6.969,25.48       c-5.371,9.046-13.276,16.055-22.864,20.273C269.819,219.567,263.026,221,256,221z M256,141c-5.04,0-10.005,1.266-14.36,3.662       c-4.749,2.597-8.709,6.42-11.476,11.071C227.442,160.322,226,165.606,226,171s1.442,10.678,4.171,15.279       c3.178,5.352,8.05,9.675,13.716,12.167c3.83,1.698,7.897,2.553,12.113,2.553s8.282-0.855,12.087-2.542       c5.692-2.504,10.563-6.827,13.744-12.184C284.558,181.677,286,176.394,286,171c0-5.39-1.44-10.671-4.167-15.271       c-2.766-4.648-6.726-8.471-11.45-11.055C266.005,142.266,261.04,141,256,141z" id="XMLID_84_"/></g><g id="XMLID_1804_"><path d="M275.184,145.902c-0.948,0-1.911-0.136-2.866-0.421c-5.292-1.581-8.3-7.152-6.719-12.444       C268.829,122.222,271,97.398,271,81c0-21.168-8.378-40.096-14.981-51.727C249.41,40.944,241,59.936,241,81       c0,16.399,2.17,41.223,5.401,52.038c1.581,5.292-1.427,10.863-6.719,12.444c-5.292,1.582-10.863-1.427-12.444-6.719       C223.333,125.692,221,99.129,221,81c0-41.681,26.073-74.845,27.183-76.236C250.08,2.385,252.957,1,256,1       s5.92,1.385,7.817,3.764C264.928,6.155,291,39.319,291,81c0,18.128-2.334,44.691-6.239,57.762       C283.466,143.099,279.489,145.902,275.184,145.902z" id="XMLID_83_"/></g><g id="XMLID_1803_"><path d="M341,206c-13.977,0-39.671-1.529-53.035-4.929c-5.353-1.361-8.588-6.804-7.227-12.157       c1.361-5.351,6.8-8.588,12.156-7.226C303.033,184.268,325.954,186,341,186c21.168,0,40.096-8.378,51.727-14.981       C381.056,164.41,362.063,156,341,156c-15.046,0-37.967,1.732-48.105,4.312c-5.352,1.363-10.795-1.875-12.156-7.226       c-1.361-5.353,1.874-10.795,7.227-12.157C301.329,137.529,327.023,136,341,136c41.681,0,74.845,26.073,76.236,27.183       C419.614,165.08,421,167.957,421,171s-1.386,5.92-3.764,7.817C415.845,179.927,382.681,206,341,206z" id="XMLID_82_"/></g><g id="XMLID_1802_"><path d="M171,206c-41.681,0-74.845-26.073-76.236-27.183C92.385,176.92,91,174.043,91,171       s1.385-5.92,3.764-7.817C96.155,162.073,129.319,136,171,136c13.977,0,39.671,1.529,53.035,4.929       c5.353,1.362,8.587,6.804,7.226,12.157c-1.362,5.352-6.806,8.585-12.157,7.226C208.966,157.732,186.046,156,171,156       c-21.168,0-40.096,8.378-51.727,14.981C130.944,177.59,149.936,186,171,186c15.046,0,37.966-1.732,48.104-4.312       c5.356-1.36,10.795,1.874,12.157,7.226c1.361,5.353-1.874,10.795-7.226,12.157C210.671,204.471,184.977,206,171,206z" id="XMLID_81_"/></g><g id="XMLID_1801_"><path d="M289.209,455.17c-5.196,0-9.585-4.018-9.964-9.283l-17.08-237.569       c-0.396-5.509,3.749-10.295,9.258-10.691c5.479-0.394,10.295,3.748,10.691,9.257l17.08,237.57       c0.396,5.509-3.749,10.295-9.258,10.691C289.693,455.162,289.45,455.17,289.209,455.17z" id="XMLID_80_"/></g><g id="XMLID_1800_"><path d="M222.79,455.17c-0.241,0-0.483-0.008-0.728-0.025c-5.508-0.396-9.653-5.183-9.257-10.691l17.08-237.57       c0.396-5.508,5.173-9.655,10.691-9.257c5.508,0.396,9.653,5.183,9.257,10.691l-17.08,237.569       C232.375,451.151,227.987,455.17,222.79,455.17z" id="XMLID_79_"/></g><g id="XMLID_1799_"><path d="M101,261H31c-16.542,0-30-13.458-30-30c0-8.01,3.121-15.542,8.788-21.211       C15.458,204.121,22.99,201,31,201h10c5.523,0,10,4.477,10,10s-4.477,10-10,10H31c-2.668,0-5.179,1.041-7.069,2.931       c-1.89,1.89-2.931,4.4-2.931,7.069c0,5.514,4.486,10,10,10h70c5.523,0,10,4.477,10,10S106.523,261,101,261z" id="XMLID_78_"/></g><g id="XMLID_1798_"><path d="M441,311h-70c-16.542,0-30-13.458-30-30c0-8.01,3.121-15.543,8.789-21.211       C355.457,254.122,362.99,251,371,251h10c5.522,0,10,4.477,10,10c0,5.522-4.478,10-10,10h-10c-2.668,0-5.178,1.041-7.068,2.932       S361,278.332,361,281c0,5.514,4.486,10,10,10h70c5.522,0,10,4.478,10,10S446.522,311,441,311z" id="XMLID_77_"/></g><g id="XMLID_1797_"><path d="M171,381h-70c-16.542,0-30-13.458-30-30c0-8.01,3.121-15.542,8.788-21.21       C85.457,324.121,92.99,321,101,321h10c5.523,0,10,4.478,10,10s-4.477,10-10,10h-10c-2.668,0-5.179,1.041-7.069,2.932       c-1.89,1.89-2.931,4.4-2.931,7.068c0,5.514,4.486,10,10,10h70c5.523,0,10,4.478,10,10S176.523,381,171,381z" id="XMLID_76_"/></g><g id="XMLID_1796_"><path d="M491,361h-80c-5.522,0-10-4.478-10-10s4.478-10,10-10h80c5.522,0,10,4.478,10,10S496.522,361,491,361z" id="XMLID_75_"/></g><g id="XMLID_1795_"><path d="M151,291H91c-5.523,0-10-4.478-10-10s4.477-10,10-10h60c5.523,0,10,4.478,10,10S156.523,291,151,291z" id="XMLID_74_"/></g><g id="XMLID_1794_"><path d="M361,361h-10c-5.522,0-10-4.478-10-10s4.478-10,10-10h10c5.522,0,10,4.478,10,10S366.522,361,361,361z" id="XMLID_73_"/></g></g></g></g></g><g id="Layer_1"/></svg>